<?xml version="1.0" encoding="UTF-8"?>
<svg width="36px" height="42px" viewBox="0 0 36 42" version="1.1" xmlns="http://www.w3.org/2000/svg" xmlns:xlink="http://www.w3.org/1999/xlink">
    <title>YariLabs</title>
    <defs>
        <polygon id="path-1" points="0 60 60 60 60 0 0 0"></polygon>
    </defs>
    <g id="Page-1" stroke="none" stroke-width="1" fill="none" fill-rule="evenodd">
        <g id="logo_60x60" transform="translate(-14.000000, -9.000000)">
            <mask id="mask-2" fill="white">
                <use xlink:href="#path-1"></use>
            </mask>
            <g id="path-1"></g>
            <path d="M42.9218408,9.32444832 L49.1152694,20.0784649 C49.1288567,20.1016847 49.1411376,20.1258927 49.1515893,20.1505947 C52.8287661,28.7552902 27.2385104,44.9010131 18.5126298,50.0960914 C17.9790693,50.4137589 17.3854117,49.7841049 17.7812706,49.3202014 C23.9470021,42.0963479 41.5132102,20.5833739 41.8769298,9.55096561 C41.8944367,9.01789633 42.6519252,8.85585109 42.9218408,9.32444832" id="Fill-33" fill="#C3362F" fill-rule="nonzero" mask="url(#mask-2)"></path>
            <path d="M14.9201501,15.2088117 L24.9269506,17.1840425 C25.2163224,17.2411157 25.4269194,17.4674235 25.464848,17.7421195 C25.8088584,20.2372128 28.3898639,26.349261 29.566183,29.0441108 C29.7300983,29.420298 29.2632839,29.7605043 28.9142344,29.5190595 C25.1725586,26.9353786 14.213563,19.0577818 14.4024106,15.5569586 C14.4154072,15.3197323 14.6716245,15.1599273 14.9201501,15.2088117" id="Fill-34" fill="#C3362F" fill-rule="nonzero" mask="url(#mask-2)"></path>
        </g>
    </g>
</svg>
